<svg width="500" height="500" viewBox="0 0 500 500" fill="none" xmlns="http://www.w3.org/2000/svg">
<circle cx="250" cy="250" r="250" fill="#C2E1EC"/>
<circle cx="250" cy="250" r="250" stroke="#053564"/>
<path d="M193.191 232.936C193.191 237.488 194.84 249.144 196.932 255.428C198.6 260.437 199.437 264.602 198.819 267.309C198.291 269.618 194.041 269.204 190.512 268.791C180.715 267.645 173.231 257.973 169.678 252.964C166.358 248.286 166.549 242.953 165.306 240.871C164.699 239.854 163.239 239.614 161.984 239.814C156.552 240.68 151.997 244.591 146.995 247.931C141.703 251.463 135.759 253.771 119.353 253.99C114.486 254.055 112.015 252.533 109.523 252.114C107.033 251.695 104.52 253.771 102.647 256.053C101.638 257.282 102.01 259.574 102.422 261.256C103.855 267.106 109.904 271.255 111.996 276.689C113.893 281.615 115.325 286.688 118.235 291.696C121.057 296.554 125.729 297.543 127.809 299.413C128.807 300.31 129.064 301.695 129.071 302.952C129.077 304.209 128.665 305.447 127.834 306.291C124.302 309.881 119.509 309.637 117.223 310.881C116.048 311.521 115.35 312.951 115.543 313.795C116.502 317.976 124.468 317.128 129.676 319.429C137.642 322.948 142.804 331.71 144.472 336.719C146.139 341.728 147.8 346.718 149.674 351.727C151.706 357.159 156.956 358.824 158.83 360.694C159.695 361.558 159.467 362.976 158.848 363.82C155.986 367.729 150.736 367.166 149.068 368.41C148.318 368.97 149.049 370.48 149.88 371.324C153.412 374.914 159.442 375.082 164.444 375.301C169.953 375.542 175.68 373.431 180.682 373.213C185.887 372.985 190.668 376.333 195.465 378.415C198.024 379.526 197.776 382.999 197.769 385.287C197.762 387.782 201.922 388.426 203.178 389.465C203.66 389.863 201.96 390.915 202.147 391.547C202.749 393.574 207.331 393.016 210.447 392.604C216.18 391.844 219.822 386.788 222.326 381.986C224.894 377.061 231.888 377.183 243.11 376.552C255.594 375.849 272.282 373.031 275.617 369.261C279.306 365.09 279.777 381.736 284.355 385.294C288.576 388.575 295.577 388.014 300.58 388.22C301.888 388.274 300.636 388.839 299.587 389.671C298.538 390.503 297.713 391.741 297.289 390.109C294.243 378.405 300.187 373.031 302.06 368.022C302.552 366.708 303.509 365.527 304.758 364.683C307.376 362.914 310.591 363.001 313.083 363.208C318.562 363.661 323.069 368.829 328.896 371.33C337.336 374.953 343.054 368.429 347.851 365.309C350.325 363.699 351.398 360.512 352.441 358.017C354.387 353.362 350.999 348.019 351.192 333.874C351.234 330.846 353.047 330.085 354.302 329.453C358.961 327.109 364.289 326.333 367.842 321.749C369.499 319.613 370.134 316.74 372.002 314.452C373.868 312.164 377.616 311.725 380.945 311.106C383.405 310.649 383.874 306.735 384.505 304.653C385.8 300.378 375.58 300.895 370.578 297.568C363.912 293.136 361.416 285.487 358.287 280.478C356.854 278.185 356.407 275.47 356.195 272.975C355.724 267.443 364.289 265.877 369.291 264.208C375.329 262.193 383.025 262.125 388.027 260.456C390.519 259.624 393.03 258.786 395.109 257.542C396.125 256.934 396.365 255.472 395.34 254.421C384.613 243.419 359.342 252.52 350.199 253.152C338.458 253.963 331.863 255.447 324.375 256.691C316.783 257.953 311.053 260.024 304.383 261.487C297.438 263.011 289.819 263.776 283.149 264.614C276.082 265.502 270.659 267.953 265.244 268.991C258.255 270.331 250.698 271.28 243.385 271.911C237.683 272.404 231.938 273.781 226.729 275.451C220.377 277.487 214.451 278.784 209.448 280.66C204.12 282.658 198.637 285.862 192.173 290.446C189.173 292.574 187.783 295.455 187.571 297.95C186.984 304.838 199.836 305.885 215.731 306.51C229.967 307.07 256.769 306.723 271.396 306.516C296.808 306.158 315.15 304.647 323.263 303.809C337.72 302.316 345.952 300.895 352.841 300.263C354.317 300.128 355.545 299.644 353.709 299.432C340.257 297.874 322.82 297.968 309.186 296.93C301.555 296.349 295.627 296.305 293.136 295.267C285.131 291.932 282.3 277.158 279.596 270.48C276.946 263.935 275.63 257.148 274.387 251.095C272.634 242.558 271.883 233.411 274.574 226.908C276.856 221.394 284.348 220.854 291.212 219.391C300.815 217.344 308.48 217.928 315.775 216.89C327.971 215.154 352.847 215.427 368.042 212.938C373.975 211.966 377.204 205.447 379.09 199.2C380.886 193.253 378.066 187.925 375.574 185.637C371.223 181.641 365.588 180.834 360.791 177.714C355.991 174.591 356.819 167.102 354.54 161.668C352.409 156.589 348.101 152.495 345.79 146.467C344.82 143.937 345.578 139.639 344.959 137.512C344.341 135.386 343.104 135.386 341.849 135.799C336.35 137.607 331.863 141.214 317.736 141.02C310.747 140.925 308.955 131.659 305.62 126.651C302.285 121.642 299.787 116.652 296.876 111.643C295.37 109.051 293.129 107.46 290.637 107.041C289.399 106.833 288.145 107.447 287.302 108.279C283.717 111.816 283.549 117.853 281.675 122.861C279.607 128.391 273.581 133.686 268.154 136.631C260.774 140.636 248.175 136.237 243.173 134.142C238.175 132.049 233.187 129.558 228.184 128.927C223.015 128.274 217.373 126.632 212.152 124.975C209.493 124.131 209.017 120.391 207.774 118.722C204.549 114.389 197.788 126.607 193.21 130.371C188.733 134.053 183.224 134.961 178.221 137.669C176.986 138.338 175.73 138.713 175.711 138.307C175.466 132.991 183.174 129.984 187.14 125.813C191.181 121.563 199.412 125.782 204.208 127.051C209.239 128.382 209.005 117.903 209.223 114.132C209.471 109.864 207.356 124.106 206.725 129.114C205.985 134.995 204.858 141.615 204.227 147.868C203.581 154.268 201.935 164.076 200.898 171.842C200.097 177.845 202.347 181.647 203.59 183.729C206.562 188.709 219.772 186.662 229.789 185.211C249.926 182.295 266.437 177.908 272.901 176.87C278.086 176.037 281.863 175.407 283.118 175.613C284.466 175.834 264.138 179.133 236.478 182.885C220.048 185.114 212.365 184.574 199.349 185.199C168.644 186.674 147.813 184.173 147.394 181.678C146.541 176.589 151.123 171.68 153.009 166.465C155.068 160.77 151.972 155.421 152.803 151.651C154.063 145.932 151.148 166.627 150.105 180.978C149.527 188.931 142.005 192.065 136.59 193.953C132.862 194.166 129.502 194.579 125.773 195.204C123.281 195.417 119.571 195.417 115.749 195.417" stroke="#FFEA88" stroke-width="80" stroke-linecap="round"/>
<path d="M213.22 66.334C218.166 66.2776 222.547 68.1181 226.275 70.3076C230.04 72.5182 233.763 75.4892 236.892 77.7988L237.339 78.1416C239.529 79.884 241.046 82.0421 242.196 83.9023C242.81 84.8947 243.395 85.9317 243.899 86.8086C244.427 87.7279 244.895 88.5237 245.377 89.247C246.219 90.5101 246.647 92.0953 246.911 93.25C247.219 94.5959 247.481 96.2281 247.713 98.0683C248.178 101.761 248.561 106.654 248.876 112.522C249.506 124.28 249.877 140.277 250.022 159.106L250.057 161.981C250.17 168.864 250.489 176.989 250.829 186.714C251.217 197.791 251.626 210.839 251.771 226.205L251.794 227.729C252.108 243.346 254.913 255 256.643 264.614L256.826 265.597C257.283 268.096 257.921 272.738 258.183 294.076C258.48 318.379 258.482 364.659 257.611 389.15C257.179 401.323 256.524 408.121 255.653 412.062C255.219 414.031 254.636 415.754 253.674 417.148C252.679 418.591 251.531 419.308 250.793 419.699L250.503 419.848C246.86 421.678 243.043 423.031 239.641 424.311C236.354 425.546 233.301 426.763 230.365 428.404L229.779 428.738C221.97 433.282 214.259 435.683 195.1 435.845L193.209 435.853C185.612 435.86 180.356 431.545 178.3 430.228L177.932 430.007C172.569 427.091 170.418 421.923 169.441 416.439C168.727 412.435 168.524 407.573 168.404 402.172L168.297 396.602C168.088 385.885 172.973 379.597 174.532 376.987L175.169 375.923L176.23 375.278C179.776 373.125 183.923 371.773 187.899 371.105L188.297 371.038L188.701 371.036C191.737 371.021 194.5 372.148 199.527 374.379C202.051 375.499 203.189 378.453 202.069 380.977C200.95 383.501 197.996 384.639 195.472 383.52C190.96 381.517 189.658 381.127 189.07 381.053C186.66 381.501 184.345 382.264 182.4 383.276C180.523 386.262 178.169 389.94 178.295 396.407L178.407 402.06C178.526 407.316 178.703 411.416 179.285 414.685C180.036 418.898 181.244 420.426 182.708 421.222L183.544 421.692C187.531 424.015 188.788 425.857 193.2 425.853L194.998 425.846C213.17 425.694 218.972 423.456 224.751 420.094L225.481 419.678C229.129 417.638 232.778 416.206 236.122 414.949C239.61 413.638 242.652 412.554 245.559 411.137C245.643 410.886 245.759 410.492 245.889 409.905C246.54 406.956 247.184 400.992 247.617 388.796C248.479 364.549 248.481 318.46 248.184 294.199C247.925 273.043 247.293 268.913 246.936 267.075L246.801 266.386C245.158 257.256 242.133 244.584 241.796 227.924L241.772 226.3C241.628 211.06 241.221 198.11 240.835 187.063C240.498 177.43 240.173 169.163 240.058 162.125L240.022 159.184C239.877 140.41 239.509 124.589 238.891 113.058C238.581 107.282 238.213 102.662 237.792 99.3174C237.581 97.6392 237.366 96.3709 237.162 95.4785C237.036 94.9273 236.943 94.6586 236.917 94.5791C236.293 93.6262 235.728 92.6624 235.228 91.791C234.665 90.8119 234.195 89.9764 233.691 89.1621C232.747 87.6351 231.95 86.6335 231.119 85.9717L230.952 85.8437C227.363 83.1938 224.375 80.7882 221.212 78.9306C218.326 77.2357 215.863 76.3637 213.56 76.334L213.102 76.3388C206.028 76.5949 200.104 78.4019 194.073 81.5215L192.866 82.1631C188.726 84.417 184.762 86.0302 181.156 88.497C177.588 90.9382 176.741 92.7215 176.826 94.1084L176.885 94.8974C177.229 98.8079 178.295 102.22 179.477 105.138C180.111 106.706 180.766 108.099 181.38 109.41C181.872 110.46 182.437 111.657 182.84 112.752L183.002 113.215L183.076 113.461C183.781 116.011 182.369 118.692 179.83 119.534C177.291 120.376 174.556 119.071 173.597 116.605L173.51 116.363L173.343 115.913C173.138 115.404 172.814 114.699 172.323 113.651C171.721 112.365 170.957 110.741 170.208 108.891C168.794 105.398 167.383 100.986 166.924 95.7773L166.845 94.7256C166.411 87.7031 171.38 83.0698 175.51 80.2441C179.603 77.444 185.219 74.9397 188.085 73.3799L188.793 72.999C196.115 69.1136 203.661 66.6743 212.739 66.3457L213.22 66.334Z" fill="#053564"/>
<path d="M105.029 363.204C105.029 360.443 107.268 358.204 110.029 358.204C112.791 358.204 115.029 360.443 115.029 363.204C115.029 367.446 115.034 371.228 115.305 374.158C115.554 376.845 116.021 378.783 116.534 380.595C117.271 382.458 117.982 384.516 118.641 386.343C119.363 388.342 120.075 390.205 120.884 391.9C122.543 395.374 124.267 397.391 126.328 398.284L127.535 398.796C133.587 401.303 139.961 403.102 148.029 405.685L149.546 406.182C153.096 407.362 156.705 408.658 160.249 409.25C164.417 409.947 166.345 409.27 167.266 408.243L168.236 407.176C169.197 406.132 170.128 405.173 170.997 404.41C171.58 403.899 172.278 403.348 173.061 402.904C173.806 402.483 175.008 401.94 176.507 401.94L176.763 401.945C179.405 402.079 181.507 404.264 181.507 406.94C181.507 409.266 179.918 411.22 177.766 411.779C177.717 411.82 177.659 411.869 177.592 411.928C177.098 412.361 176.461 413.008 175.62 413.921L174.708 414.925C170.145 420.006 163.478 419.928 158.6 419.113C154.228 418.383 149.575 416.74 146.296 415.642L144.979 415.209C137.363 412.771 130.308 410.768 123.672 408.02L122.35 407.459C116.97 405.126 113.883 400.447 111.859 396.209C110.827 394.047 109.979 391.799 109.235 389.739C108.462 387.597 107.836 385.763 107.147 384.049L107.052 383.81L106.98 383.562C106.345 381.342 105.684 378.708 105.347 375.08C105.024 371.59 105.029 367.29 105.029 363.204Z" fill="#053564"/>
<path d="M76.123 300.961C77.6495 298.66 80.7525 298.031 83.0536 299.558C85.3546 301.084 85.9822 304.187 84.456 306.488C83.3698 308.126 82.893 309.054 82.6191 309.816C82.3717 310.505 82.2091 311.281 82.0839 312.695C82.3831 326.893 84.383 332.949 87.7431 338.35C90.9864 340.489 93.683 342.423 96.6962 344.19C99.8514 346.041 102.738 347.309 105.619 347.783L106.566 347.933C111.353 348.658 116.891 349.038 121.932 348.83C127.551 348.598 131.646 347.663 133.645 346.413L136.227 344.79C138.825 343.151 141.429 341.506 143.635 340.234C145.104 339.387 146.578 338.596 147.885 338.05C148.533 337.779 149.294 337.502 150.088 337.333C150.709 337.201 151.961 336.992 153.357 337.393L153.639 337.482L153.88 337.572C156.335 338.557 157.613 341.306 156.744 343.836C156.02 345.944 154.027 347.255 151.912 347.211C151.863 347.23 151.806 347.25 151.742 347.276C151.034 347.572 150 348.107 148.632 348.896C147.265 349.685 145.746 350.62 144.117 351.64L138.948 354.892C134.602 357.61 128.239 358.578 122.344 358.821C116.59 359.059 110.404 358.629 105.054 357.817L103.995 357.65C99.3888 356.892 95.2824 354.955 91.6367 352.816C88.1283 350.759 84.4335 348.117 81.3788 346.133L80.496 345.559L79.9189 344.679C74.8464 336.928 72.3974 328.927 72.08 312.63L72.0751 312.378L72.0956 312.127L72.1611 311.394C72.329 309.7 72.608 308.104 73.2079 306.434C73.8809 304.562 74.865 302.857 76.123 300.961Z" fill="#053564"/>
<path d="M67.59 228.936C69.2813 226.754 72.4218 226.355 74.6046 228.047C76.7874 229.738 77.1856 232.879 75.4943 235.061C73.5364 237.588 72.5038 239.157 71.879 240.227C71.2144 241.366 71.0425 241.849 70.4552 243.017L70.422 243.084L70.3859 243.15C69.0194 245.679 67.8336 250.916 67.2999 257.591C66.8013 263.827 66.9268 270.604 67.6681 276.169C70.3872 282.396 74.6472 287.891 80.3195 290.016L80.8839 290.215C83.8434 291.209 88.8823 292.131 94.7716 292.581C100.978 293.055 107.628 292.966 113.046 292.081L113.836 291.946C117.789 291.248 121.766 290.156 125.025 288.985C126.761 288.361 128.226 287.74 129.334 287.18C130.534 286.573 130.963 286.213 130.972 286.207C132.917 284.247 136.083 284.235 138.043 286.181C140.003 288.126 140.015 291.292 138.069 293.252C136.907 294.423 135.3 295.368 133.846 296.103C132.277 296.896 130.415 297.674 128.405 298.396C124.638 299.75 120.108 300.994 115.566 301.796L114.657 301.95C108.221 303.001 100.731 303.065 94.0099 302.552C87.7798 302.076 81.7644 301.071 77.6163 299.666L76.8126 299.38C67.1939 295.777 61.3475 286.985 58.1915 279.439L57.9454 278.852L57.8546 278.223C56.9146 271.698 56.765 263.888 57.3322 256.794C57.8789 249.955 59.1501 242.98 61.5353 238.498C61.835 237.897 62.3892 236.651 63.2433 235.187C64.1514 233.632 65.4544 231.693 67.59 228.936Z" fill="#053564"/>
<path d="M163.982 90.9751C166.506 89.8551 169.46 90.9932 170.58 93.517C171.7 96.041 170.562 98.9956 168.038 100.116C162.806 102.437 160.871 103.108 159.019 103.727C152.698 106.378 146.388 109.497 140.045 113.135L138.766 113.875L138.758 113.88C136.926 114.946 135.037 115.952 133.321 116.886C131.562 117.843 129.932 118.753 128.403 119.722C125.55 121.531 123.241 123.432 121.508 125.846L121.169 126.335C120.514 127.319 119.924 128.89 119.365 131.302C118.795 133.755 118.415 136.282 117.818 139.419C116.76 144.973 115.114 152.052 110.214 157.23L109.73 157.724C107.649 159.78 104.87 160.768 103.62 161.229L103.185 161.396C99.4883 162.942 96.1472 164.225 93.0745 165.932C90.2685 167.491 88.0542 169.219 86.4866 171.381L86.181 171.82C80.9263 179.702 76.2579 184.817 78.428 193.164L78.6292 193.968C79.5936 198.002 79.9903 202.173 80.5042 205.623C81.0803 209.492 81.8667 213.188 83.6751 217.108L84.0472 217.945C84.8851 219.902 85.5164 221.874 86.055 223.687C86.7073 225.883 87.1716 227.649 87.7767 229.461C88.955 232.992 90.1766 235.048 92.0755 236.282L92.6018 236.615C95.2526 238.237 98.1375 239.276 100.548 239.745C101.835 239.995 102.85 240.055 103.526 240.016C103.709 240.005 103.84 239.988 103.928 239.974C106.093 238.651 108.951 239.16 110.516 241.225C112.183 243.426 111.75 246.562 109.549 248.23L109.215 248.468C107.525 249.604 105.552 249.915 104.108 249.999C102.396 250.099 100.52 249.926 98.6399 249.561C95.1135 248.875 91.0919 247.417 87.3675 245.135L86.6272 244.667C81.8027 241.533 79.6646 236.745 78.2903 232.627C77.619 230.616 77.0088 228.355 76.4681 226.535C75.9627 224.833 75.46 223.296 74.8587 221.891L74.594 221.296C72.2147 216.139 71.2516 211.381 70.6136 207.096C69.9893 202.904 69.7183 199.696 68.9173 196.351L68.7503 195.68C65.1872 181.976 73.7735 172.404 77.8606 166.273L78.1243 165.886C80.8782 161.928 84.5538 159.225 88.2181 157.19C91.9209 155.133 96.0168 153.555 99.3265 152.17L100.09 151.864C100.334 151.769 100.562 151.683 100.752 151.61C101.171 151.449 101.482 151.325 101.757 151.2C102.274 150.965 102.525 150.786 102.701 150.611L102.963 150.343C105.627 147.524 106.921 143.18 107.993 137.548C108.495 134.913 109 131.73 109.623 129.041C110.257 126.312 111.169 123.308 112.849 120.789L113.117 120.393C115.917 116.35 119.491 113.531 123.048 111.276C124.876 110.117 126.754 109.075 128.539 108.103C129.91 107.357 131.205 106.664 132.471 105.955L133.73 105.236C140.917 101.037 148.093 97.4574 155.308 94.4399L155.479 94.3686L155.656 94.309L156.908 93.8842C158.269 93.4065 160.123 92.687 163.982 90.9751Z" fill="#053564"/>
<path d="M416.423 212.755C416.423 209.156 416.413 206.069 416.17 203.801C415.692 201.245 415.311 196.854 414.875 192.317C414.419 187.571 413.871 182.262 413.074 177.369C410.205 170.469 407.857 164.128 403.82 158.554L403.413 158.003C401.229 155.098 398.358 152.691 395.054 150.274C392.167 148.162 388.51 145.758 385.5 143.272L384.907 142.774C378.323 137.14 375.329 129.611 373.262 122.467L372.859 121.044C372.217 118.717 371.76 116.408 371.361 114.302C370.951 112.132 370.614 110.25 370.187 108.465C369.41 105.216 368.502 103.124 367.182 101.716C367.16 101.712 367.138 101.706 367.114 101.702C366.497 101.577 365.555 101.463 364.234 101.376C361.6 101.203 358.129 101.174 354.048 101.142C346.357 101.082 336.665 101.023 328.597 99.7181L327.82 99.5882C326.511 99.3603 324.967 98.8999 323.517 98.0824C322.176 97.3265 320.598 96.0789 319.624 94.1214L319.437 93.721C318.576 91.7342 317.928 89.6103 317.366 87.7376C316.776 85.7709 316.27 84.047 315.639 82.4203C314.477 79.4275 313.154 77.4856 311.119 76.3197L310.702 76.097C308.437 74.9673 300.962 73.1756 290.97 74.4212L289.995 74.5521C287.306 74.935 284.71 75.1776 282.327 75.3929C279.9 75.6122 277.745 75.7989 275.727 76.0707C271.894 76.5866 269.235 77.3392 267.287 78.6263L266.906 78.891C263.523 81.3711 260.498 84.4623 258.273 87.3128C257.165 88.7335 256.303 90.0332 255.711 91.1009C255.416 91.6332 255.209 92.0707 255.073 92.4066C254.93 92.7613 254.908 92.9036 254.914 92.8646L245.049 91.2289C245.332 89.5193 246.125 87.7666 246.966 86.2503C247.859 84.6397 249.028 82.905 250.39 81.1605C253.105 77.6805 256.777 73.9181 260.994 70.8265L261.377 70.5531C265.353 67.7847 270.011 66.7503 274.393 66.1605C276.679 65.8527 279.09 65.6451 281.428 65.4339C283.809 65.2188 286.176 64.9948 288.586 64.6517L289.693 64.5033C301.08 63.0789 310.668 64.9051 315.165 67.1478L315.672 67.4105C320.824 70.1808 323.376 74.7185 324.961 78.8011C325.767 80.8775 326.396 83.0346 326.944 84.8626C327.473 86.6227 327.934 88.1 328.465 89.39C328.573 89.4476 328.721 89.5148 328.907 89.5775C329.114 89.6469 329.331 89.7 329.536 89.7357L330.221 89.8509C337.349 91.002 346.209 91.0814 354.126 91.1429C358.1 91.1738 361.902 91.2016 364.89 91.3978C366.38 91.4957 367.836 91.6448 369.097 91.8998C370.034 92.0893 371.744 92.4879 373.15 93.6107L373.428 93.846L373.785 94.1761C377.413 97.6251 378.954 102.128 379.913 106.139C380.411 108.222 380.806 110.431 381.187 112.443C381.579 114.518 381.974 116.481 382.499 118.382L382.877 119.719C384.791 126.306 387.087 131.477 391.409 135.175L391.927 135.611C394.536 137.767 397.426 139.619 400.958 142.202C404.499 144.793 408.325 147.894 411.407 151.994L411.902 152.665C416.295 158.732 419.046 165.561 421.469 171.492L422.528 174.063L422.751 174.595L422.847 175.163C423.758 180.591 424.356 186.436 424.829 191.36C425.292 196.177 425.614 199.789 425.959 201.745L426.028 202.115L426.07 202.324L426.094 202.535C426.43 205.503 426.423 209.291 426.423 212.755C426.423 215.517 424.184 217.755 421.423 217.755C418.662 217.755 416.423 215.517 416.423 212.755ZM254.914 92.8646C254.462 95.5888 251.887 97.4306 249.163 96.9789C246.439 96.5269 244.597 93.9528 245.049 91.2289L254.914 92.8646Z" fill="#053564"/>
<path d="M350.629 192.078C353.268 191.641 355.767 193.356 356.331 195.941L356.38 196.192L356.484 196.75C357.1 199.735 359.134 205.617 362.852 211.093L362.939 211.214C363.392 211.813 364.137 212.315 365.585 212.584C367.226 212.889 369.41 212.807 372.028 212.349C377.336 211.419 382.73 209.303 386.577 208.021C394.216 205.474 404.427 204.14 413.688 206.107L414.154 206.211C418.937 207.348 422.818 210.144 425.965 213.286C429.203 216.518 431.952 220.41 434.313 223.951L434.781 224.668C439.53 232.091 441.528 239.991 443.522 249.917L443.629 250.447L443.619 250.988C443.473 259.367 442.488 265.64 440.81 270.858C439.333 275.451 437.376 279.036 435.262 282.332L434.348 283.73C433.739 284.644 432.97 285.803 431.655 287.213C430.374 288.586 428.673 290.095 426.182 291.973C423.977 293.635 420.841 293.195 419.179 290.989C417.517 288.784 417.958 285.65 420.163 283.987C422.36 282.331 423.582 281.207 424.343 280.391C425.07 279.612 425.465 279.026 426.027 278.183L426.836 276.948C428.672 274.086 430.162 271.304 431.291 267.796C432.56 263.849 433.442 258.747 433.607 251.348C431.68 241.837 429.95 235.666 426.353 230.05L425.993 229.498C423.683 226.033 421.391 222.849 418.901 220.363C416.577 218.043 414.334 216.593 412.065 215.996L411.611 215.888C404.481 214.374 396.112 215.384 389.739 217.508C386.58 218.561 380.027 221.101 373.753 222.199C370.58 222.755 367.064 223.029 363.759 222.416C360.464 221.804 357.126 220.246 354.8 217.026L354.579 216.71C350.113 210.132 347.546 202.991 346.668 198.657L346.514 197.829L346.478 197.574C346.178 194.946 347.99 192.516 350.629 192.078Z" fill="#053564"/>
<path d="M359.094 263.275C360.178 260.735 363.115 259.555 365.655 260.639C368.51 261.857 371.867 264.592 374.771 267.046C377.98 269.757 381.127 272.571 384.226 274.977L384.617 275.268C386.602 276.692 389.138 277.646 393.335 278.341C397.937 279.104 403.934 279.474 412.658 280.07L413.046 280.101C421.12 280.833 425.62 286.959 428.157 289.998L428.53 290.464C432.238 295.315 431.578 301.149 430.416 305.484C429.788 307.823 428.91 310.118 428.08 312.16C427.309 314.055 426.641 315.592 426.066 317.068L425.826 317.698C422.957 325.356 418.509 331.993 413.861 338.35L412.928 339.618C407.453 347.035 399.751 352.236 389.968 355.193L389.015 355.471C377.232 358.812 366.904 354.582 362.593 351.061L362.405 350.907L362.232 350.735C360.299 348.814 358.85 346.609 357.782 344.483C356.607 342.145 355.912 339.896 355.263 336.043L365.125 334.384C365.666 337.599 366.125 338.814 366.717 339.993C367.377 341.305 368.182 342.499 369.117 343.47C371.424 345.207 378.259 348.127 386.287 345.851L387.067 345.622C395.056 343.21 400.845 339.149 404.883 333.679L405.799 332.431C410.33 326.23 414.088 320.524 416.461 314.191L416.728 313.491C417.375 311.829 418.168 309.985 418.816 308.392C419.607 306.447 420.295 304.616 420.757 302.893C421.675 299.471 421.391 297.678 420.636 296.61L420.48 296.406C417.333 292.635 415.423 290.415 412.285 290.074L411.977 290.047C403.531 289.471 396.905 289.069 391.7 288.206C386.535 287.35 382.238 285.969 378.459 283.154L378.094 282.876C374.782 280.305 371.225 277.141 368.318 274.685C365.106 271.971 362.933 270.35 361.73 269.836C359.19 268.752 358.011 265.814 359.094 263.275ZM359.364 330.284C362.087 329.825 364.666 331.661 365.125 334.384L355.263 336.043C354.805 333.32 356.641 330.742 359.364 330.284Z" fill="#053564"/>
<path d="M384.933 350.958C384.933 348.197 387.172 345.959 389.933 345.958C392.695 345.958 394.933 348.197 394.933 350.958C394.933 354.655 394.63 360.135 393.831 365.636C393.052 370.997 391.723 376.985 389.39 381.3C385.656 388.208 380.731 395.801 374.232 400.638L373.598 401.097C365.864 406.552 358.38 409.342 346.881 410.37L345.756 410.463C341.999 410.755 337.055 411.674 331.683 413.361L330.604 413.708C330.558 413.724 330.54 413.671 330.399 413.954C330.166 414.423 329.946 415.25 329.774 416.685C329.692 417.372 329.633 418.075 329.562 418.88C329.495 419.645 329.417 420.519 329.3 421.368C329.109 422.748 328.718 425.009 327.345 426.908L327.057 427.282C323.489 431.65 318.761 433.712 312.595 434.772C307.393 435.666 300.644 435.928 291.908 436.081L288.041 436.142C281.29 436.238 276.225 433.412 272.2 430.129C270.229 428.522 268.429 426.74 266.815 425.122C265.157 423.458 263.713 421.987 262.215 420.677L261.382 419.95C260.535 419.198 259.663 418.395 258.917 417.723C257.839 416.754 256.921 415.966 256.133 415.399C254.912 414.521 253.915 414.117 252.522 413.642L251.899 413.432L251.657 413.345C249.193 412.383 247.891 409.646 248.737 407.108C249.583 404.57 252.267 403.162 254.815 403.871L255.061 403.946L255.773 404.184C257.491 404.768 259.595 405.57 261.971 407.28C263.238 408.191 264.503 409.297 265.605 410.289C266.494 411.088 267.257 411.794 267.988 412.443L268.713 413.075L268.75 413.108C270.588 414.711 272.334 416.492 273.897 418.06C275.519 419.687 276.993 421.135 278.521 422.381C281.495 424.807 284.333 426.194 287.898 426.143L291.806 426.081C300.526 425.926 306.514 425.67 310.901 424.916C315.545 424.118 317.674 422.874 319.171 421.122C319.205 421.005 319.301 420.674 319.394 419.997C319.473 419.431 319.532 418.793 319.6 418.009C319.665 417.266 319.739 416.38 319.845 415.498C320.205 412.482 321.214 406.276 327.47 404.211L328.678 403.823C334.693 401.933 340.386 400.851 344.98 400.494L345.959 400.413C355.934 399.527 361.7 397.252 367.835 392.925L368.285 392.599C372.917 389.145 376.99 383.212 380.594 376.545C382.048 373.854 383.19 369.332 383.935 364.199C384.66 359.206 384.933 354.207 384.933 350.958Z" fill="#053564"/>
<path d="M291.149 335.529C293.788 335.092 296.287 336.807 296.851 339.392L296.9 339.644L297.015 340.276C297.687 343.696 299.766 350.987 301.986 358.211L302.161 358.755C303.02 361.322 304.355 363.804 306.14 365.897C306.594 366.187 307.358 366.487 309.115 366.686C310.825 366.879 313.018 366.932 315.558 366.946L318.208 366.951L318.465 366.958C321.107 367.092 323.208 369.276 323.208 371.951C323.208 374.627 321.107 376.811 318.465 376.944L318.208 376.951L315.568 376.947C312.902 376.934 310.215 376.874 307.989 376.622C305.076 376.292 302.437 375.597 300.063 373.851L299.591 373.486L299.281 373.235L299.014 372.939C296.055 369.642 293.968 365.788 292.675 361.921L292.427 361.148C290.268 354.12 287.984 346.22 287.176 342.061L287.035 341.28L286.998 341.026C286.698 338.397 288.51 335.967 291.149 335.529Z" fill="#053564"/>
<path d="M174.524 291.994C184.683 291.8 195.332 292.94 202.886 297.917L203.255 298.165L204.726 299.173L205.228 300.884C206.012 303.56 206.165 306.527 206.19 309.105C206.203 310.429 206.181 311.779 206.163 313.029C206.146 314.308 206.133 315.496 206.157 316.624C206.205 318.979 206.412 320.567 206.777 321.574C207.064 322.367 207.241 322.311 207.253 322.313L207.206 322.301C207.191 322.297 207.38 322.337 207.93 322.258C208.635 322.155 209.559 321.916 210.918 321.503C213.483 320.723 217.239 319.424 221.735 318.623L229.367 317.242C231.967 316.773 234.572 316.313 237.034 315.91C241.884 315.117 246.626 314.469 249.982 314.469C252.743 314.47 254.982 316.708 254.982 319.469C254.982 322.231 252.743 324.469 249.982 324.469C247.547 324.469 243.559 324.976 238.649 325.779C236.232 326.174 233.699 326.623 231.143 327.084L223.49 328.467C219.748 329.135 216.789 330.171 213.825 331.071C212.421 331.498 210.877 331.935 209.367 332.154C207.935 332.362 206.231 332.424 204.472 331.919L204.119 331.809C200.436 330.593 198.4 327.813 197.373 324.975C196.422 322.345 196.211 319.374 196.158 316.83C196.131 315.508 196.147 314.161 196.164 312.891C196.182 311.593 196.202 310.381 196.191 309.203C196.176 307.724 196.108 306.477 195.975 305.439C190.886 302.761 183.169 301.766 173.918 302.01C170.384 302.263 169.087 302.721 167.591 303.219C164.971 304.093 162.14 302.677 161.267 300.057C160.394 297.438 161.809 294.606 164.429 293.733C166.489 293.047 168.646 292.354 173.316 292.028L173.421 292.02L173.526 292.017L174.524 291.994Z" fill="#053564"/>
<path d="M277.281 132.326C282.757 127.011 290.444 126.574 297.461 126.986C301.153 127.203 305.156 127.701 309.144 128.172C312.691 128.591 316.306 128.999 320.006 129.236L321.597 129.327L321.723 129.335L322.536 129.401C326.409 129.74 327.63 130.207 336.06 130.487C342.712 130.707 353.407 130.763 365.385 130.777L377.688 130.782L377.945 130.789C380.587 130.923 382.688 133.107 382.688 135.782C382.688 138.457 380.587 140.641 377.945 140.775L377.688 140.782L365.402 140.777C353.394 140.763 342.539 140.708 335.729 140.482C326.793 140.186 324.11 139.544 320.995 139.308C316.406 139.076 312.003 138.58 307.972 138.104C303.844 137.617 300.199 137.164 296.874 136.968C290.093 136.57 286.42 137.404 284.254 139.496C284.187 139.738 284.069 140.264 283.949 141.285C283.623 144.052 283.405 149.124 283.26 158.973C282.985 177.623 283.532 212.779 282.749 232.341L282.669 234.184C281.938 249.72 281.252 262.596 281.412 272.237C281.492 277.058 281.783 280.829 282.317 283.587C282.583 284.958 282.885 285.946 283.179 286.628C283.244 286.78 283.306 286.908 283.361 287.014C283.611 287.067 283.921 287.126 284.298 287.189C285.796 287.439 287.928 287.685 290.618 287.919C295.973 288.384 303.171 288.77 311.138 289.077C325.064 289.613 341.15 289.901 353.431 289.964L358.444 289.977L358.702 289.984C361.344 290.118 363.444 292.302 363.444 294.977C363.444 297.652 361.344 299.837 358.702 299.971L358.444 299.977L353.39 299.963C341.007 299.9 324.806 299.611 310.753 299.07C302.731 298.761 295.346 298.368 289.752 297.881C286.967 297.639 284.533 297.366 282.652 297.052C281.721 296.897 280.815 296.714 280.025 296.488C279.534 296.347 278.279 295.985 277.198 295.11L276.984 294.928C274.339 292.553 273.157 288.882 272.5 285.49C271.8 281.877 271.496 277.426 271.413 272.403C271.246 262.355 271.959 249.047 272.681 233.714L272.76 231.885C273.537 212.488 272.977 178.156 273.262 158.827C273.405 149.074 273.62 143.479 274.017 140.113C274.216 138.428 274.495 136.97 274.985 135.71C275.556 134.242 276.313 133.301 277.022 132.583L277.281 132.326Z" fill="#053564"/>
<path d="M401.688 168.01C405.224 167.811 408.194 167.831 410.553 168.056C411.895 168.183 413.169 168.388 414.294 168.713C415.221 168.981 416.588 169.476 417.735 170.518L417.961 170.733L418.138 170.92C419.912 172.883 419.852 175.912 417.961 177.804C416.196 179.569 413.44 179.738 411.485 178.312C411.154 178.22 410.552 178.101 409.606 178.011C407.903 177.849 405.472 177.813 402.266 177.993L400.845 178.084C392.52 178.674 362.376 181.02 321.942 180.729L321.91 180.729H321.877C307.54 180.438 305.299 179.83 300.763 179.557C297.205 179.342 291.875 179.287 285.887 179.273L279.721 179.269L279.464 179.262C276.822 179.128 274.721 176.944 274.721 174.269C274.721 171.507 276.96 169.269 279.721 169.269L285.863 169.273C291.91 169.287 297.523 169.344 301.365 169.575C306.691 169.896 307.916 170.443 322.043 170.73C362.049 171.016 391.856 168.697 400.138 168.109L401.688 168.01Z" fill="#053564"/>
<path d="M314.406 132.039C321.06 131.558 328.291 131.485 335.237 132.482C338.164 132.535 340.871 132.66 343.22 132.844L346.536 133.093C354.097 133.641 360.436 133.978 365.427 134.545C371.181 135.198 376.199 136.24 380.366 138.847L382.935 140.434C389.041 144.171 395.842 148.178 401.914 153.253L402.362 153.639C402.545 153.802 402.751 153.997 402.952 154.208C403.235 154.506 403.779 155.112 404.193 155.993C404.715 156.177 405.179 156.352 405.561 156.516C405.877 156.651 406.455 156.908 407.006 157.289C407.229 157.442 407.898 157.913 408.453 158.744C408.647 159.036 408.856 159.436 409.022 159.912C409.301 160.072 409.61 160.28 409.909 160.55C410.413 161.006 411.633 162.325 411.554 164.452C411.476 166.566 410.174 167.784 409.656 168.195C408.721 168.935 407.741 169.14 407.711 169.147C407.439 169.215 407.208 169.25 407.085 169.267C406.822 169.302 406.568 169.321 406.384 169.332C405.992 169.356 405.513 169.369 405.002 169.376C404.683 169.38 404.329 169.381 403.943 169.381C403.841 169.491 403.737 169.597 403.63 169.695C402.763 170.495 401.809 170.884 401.193 171.086C400.099 171.444 398.833 171.601 397.539 171.668L396.983 171.691C381.099 172.215 367.239 173.447 354.157 173.695L351.55 173.731C334.467 173.876 319.951 173.8 309.248 173.54C303.901 173.41 299.466 173.234 296.119 173.013C294.449 172.902 293.003 172.777 291.829 172.635C290.903 172.523 289.869 172.37 288.981 172.119L288.61 172.006C287.773 171.727 285.697 171.108 283.957 169.168C282.292 167.312 281.412 164.835 280.908 161.897C280.513 159.599 280.22 156.295 280.964 152.717C280.225 150.891 279.509 148.816 279.042 146.878C278.619 145.125 278.149 142.548 278.709 140.241C279.02 138.958 279.804 137.158 281.702 136C283.599 134.843 285.604 134.941 287.032 135.285C286.843 135.24 287.33 135.329 289.234 135.136C290.882 134.969 292.993 134.667 295.582 134.289C300.674 133.545 307.313 132.552 314.406 132.039ZM292.096 151.962C292.082 152.068 292.069 152.176 292.059 152.286C292.097 152.306 292.139 152.326 292.184 152.347C292.15 152.223 292.122 152.094 292.096 151.962Z" fill="#053564"/>
<path d="M205.074 138.873C206.33 138.545 207.465 138.756 208.281 139.094C209.626 139.651 210.327 140.628 210.465 140.816C210.594 140.991 210.703 141.159 210.79 141.308L210.993 141.679L211.115 141.93C211.397 142.54 211.671 143.309 211.869 143.876C212.139 144.647 212.446 145.565 212.74 146.446C213.613 149.066 212.196 151.897 209.576 152.771C206.957 153.644 204.125 152.228 203.252 149.609C203.075 149.076 202.903 148.565 202.744 148.096C201.82 147.189 201.246 145.926 201.246 144.529C201.246 144.408 201.246 144.169 201.254 143.936C201.259 143.803 201.274 143.229 201.43 142.602C201.482 142.394 201.719 141.394 202.543 140.445C203.027 139.889 203.854 139.193 205.074 138.873Z" fill="#053564"/>
<path d="M162.456 146.832C165.56 146.603 169.433 146.831 172.559 147.126L173.182 147.197C179.533 148.051 183.224 152.53 185.46 156.507C186.624 158.575 187.54 160.757 188.296 162.626C188.679 163.569 189.01 164.403 189.318 165.15C189.769 164.872 190.316 164.521 190.976 164.081C192.667 162.955 194.947 161.377 197.332 160.158C199.716 158.94 202.745 157.785 206.083 157.892L206.705 157.924C209.778 158.153 212.353 159.335 214.322 161.265C216.306 163.209 217.371 165.613 217.988 167.685C218.609 169.773 218.875 171.876 219.031 173.515C219.218 175.48 219.229 176.26 219.338 176.913L219.418 177.454C220.123 182.989 217.156 186.967 215.107 189.301C214.565 189.918 214.017 190.497 213.578 190.964C213.249 191.313 212.987 191.596 212.767 191.844C213.355 192.267 214.394 192.76 216.138 193.337C217.035 193.633 217.993 193.915 219.056 194.227C220.09 194.529 221.226 194.86 222.344 195.225C224.523 195.935 227.067 196.902 229.24 198.443L229.592 198.71C231.289 200.076 232.001 201.917 232.304 203.296C232.63 204.779 232.614 206.281 232.51 207.52C232.327 209.702 231.788 211.919 231.351 213.481L231.171 214.108C228.701 222.544 220.262 224.659 215.245 225.522C213.846 225.763 212.482 225.941 211.289 226.093C210.063 226.249 209.076 226.371 208.226 226.513C208.432 227.25 208.968 228.314 210.168 229.896C211.233 231.301 212.506 232.713 213.974 234.374C215.367 235.95 216.938 237.752 218.233 239.64L218.399 239.893C220.043 242.508 219.468 245.219 218.868 246.763C218.325 248.156 217.494 249.364 216.856 250.198L216.595 250.532C210.682 258.002 202.082 258.605 198.913 259.007L198.354 259.086C194.631 259.711 191.631 258.047 189.7 256.694C188.698 255.993 187.743 255.199 186.933 254.521C186.2 253.908 185.567 253.376 184.937 252.886C184.864 252.91 184.782 252.948 184.702 253.008C184.611 253.076 184.502 253.185 184.399 253.368C184.038 254.01 183.669 255.467 183.325 257.993C183.05 260.006 182.762 263.074 182.249 265.187C181.654 267.629 180.544 269.928 178.362 271.501C176.606 272.767 174.664 273.158 173.286 273.34L172.731 273.407C166.267 274.14 159.905 273.273 155.702 270.94L155.301 270.711C150.643 267.927 148.377 263.154 146.827 259.504C145.376 256.089 144.44 253.447 143.137 251.271C143.013 251.445 142.757 251.854 142.386 252.75C142.245 253.092 142.107 253.446 141.945 253.863C141.791 254.26 141.612 254.72 141.419 255.178C141.096 255.948 140.645 256.934 140 257.891L139.71 258.298C137.177 261.697 133.255 260.669 132.194 260.314C130.839 259.862 129.591 259.109 128.628 258.396L128.233 258.093C121.071 252.423 118.458 245.111 117.366 241.346L117.167 240.642C115.393 234.213 119.259 229.664 121.751 227.222C122.415 226.571 123.086 225.97 123.654 225.463C124.133 225.035 124.52 224.685 124.859 224.367C122.542 223.127 120.273 222.565 118.029 222.17C117.053 221.998 115.139 221.715 114.097 221.517C112.913 221.29 111.413 220.944 109.989 220.227L109.705 220.078C106.175 218.159 104.727 214.39 104.073 212.139C103.246 209.295 103.083 205.629 104.656 202.42L104.807 202.12C108.044 195.884 114.536 194.517 118.708 194.101C120.409 193.931 122.175 193.884 123.501 193.847C123.286 193.52 123.028 193.15 122.723 192.734C121.526 191.103 120.225 189.583 118.653 187.585C117.32 185.892 115.835 183.901 114.777 181.842L114.571 181.429C113.56 179.336 113.509 177.172 113.745 175.497C113.983 173.805 114.568 172.19 115.328 170.893L115.458 170.68C116.823 168.52 119.017 167.535 120.584 167.043C121.396 166.788 122.259 166.599 123.145 166.458C126.44 163.747 128.418 162.396 130.571 161.325C132.205 160.512 135.684 158.889 139.307 160.196L139.658 160.332L140.444 160.657L141.079 161.224C141.611 161.699 142.827 162.664 144.56 164.065C145.185 164.571 145.855 165.12 146.54 165.686C147.455 164.663 148.785 164.021 150.265 164.021C151.577 164.021 152.771 164.526 153.663 165.353C155.022 164.123 155.372 162.745 155.311 161.127C155.252 159.55 154.834 158.147 154.385 156.742L153.939 155.33C153.448 153.712 153.607 151.872 154.657 150.286C155.551 148.936 156.787 148.238 157.582 147.882C159.155 147.177 161.007 146.939 162.456 146.832ZM164.757 156.743C165.029 157.967 165.251 159.343 165.304 160.751C165.454 164.736 164.327 169.489 159.88 173.2L159.44 173.556C157.974 174.7 156.339 175.228 154.982 175.462C154.998 175.554 155.016 175.647 155.029 175.742C155.194 177.015 154.964 178.893 153.429 180.376C152.13 181.631 150.608 181.879 149.875 181.941C149.255 181.994 148.665 181.958 148.155 181.894L147.673 181.822C145.687 181.486 144.245 180.196 143.792 179.807C143.452 179.514 143.086 179.178 142.813 178.93C142.511 178.655 142.239 178.412 141.96 178.18C140.95 177.338 140.035 176.801 138.891 176.642L138.66 176.614C134.031 176.184 129.893 175.948 126.794 176.123C125.348 176.205 124.347 176.367 123.721 176.543C123.689 176.662 123.663 176.779 123.647 176.89C123.628 177.028 123.628 177.127 123.63 177.186C124.193 178.311 125.165 179.69 126.511 181.4C127.749 182.973 129.48 185.039 130.786 186.817C132.068 188.564 133.598 190.874 134.2 193.355C134.524 194.692 134.642 196.326 134.107 198.032C133.59 199.681 132.586 201.005 131.334 202.005L131.08 202.2C129.773 203.174 128.305 203.459 127.559 203.578C126.668 203.721 125.714 203.775 124.893 203.808C123.062 203.88 121.483 203.874 119.702 204.052C116.255 204.396 114.568 205.244 113.781 206.554L113.635 206.821C113.476 207.146 113.313 208.099 113.676 209.349C113.9 210.119 114.144 210.688 114.369 211.06C114.454 211.2 114.519 211.283 114.555 211.325C114.719 211.395 115.115 211.531 115.972 211.694C117.225 211.934 117.912 211.996 119.764 212.322C122.872 212.87 126.854 213.817 131.033 216.385L131.321 216.569C134.158 218.463 135.877 221.907 135.419 225.496L135.367 225.855C135.12 227.325 134.449 228.48 133.884 229.267C133.31 230.067 132.642 230.762 132.069 231.316C131.492 231.875 130.853 232.441 130.313 232.923C129.74 233.434 129.229 233.896 128.75 234.365C126.67 236.402 126.604 237.249 126.806 237.981L126.968 238.556C127.754 241.255 129.317 245.507 133.084 249.077C133.105 249.026 133.126 248.975 133.147 248.924C133.838 247.255 135.163 244.292 138.143 242.546L138.399 242.401C139.706 241.686 141.41 241.112 143.165 240.977C144.851 240.847 147.886 241.07 149.991 243.613L150.192 243.866L150.453 244.219C153.116 247.89 154.742 252.561 156.031 255.595C157.578 259.238 158.816 261.162 160.431 262.127L160.766 262.31C162.582 263.22 166.505 264.049 171.605 263.471L171.982 263.424C172.142 263.402 172.27 263.379 172.374 263.359C172.419 263.232 172.475 263.057 172.532 262.822C172.884 261.374 173.028 259.488 173.417 256.642C173.735 254.309 174.257 251.003 175.681 248.469C178.687 243.121 185.659 241.13 190.401 244.48L190.625 244.643L191.362 245.214C192.087 245.789 192.768 246.366 193.351 246.854C194.181 247.548 194.831 248.081 195.436 248.504C196.252 249.076 196.637 249.194 196.747 249.216C201.14 248.484 205.429 248.527 208.755 244.325L209.014 243.984C208.285 243.057 207.436 242.076 206.482 240.996C205.141 239.479 203.551 237.719 202.201 235.938C199.669 232.6 196.502 227.309 199.019 221.295L199.113 221.082C200.111 218.922 202.027 217.97 203.031 217.565C204.195 217.096 205.476 216.834 206.54 216.655C207.643 216.47 208.883 216.318 210.027 216.173C211.218 216.021 212.387 215.868 213.547 215.668C218.766 214.769 220.968 213.368 221.575 211.298L221.729 210.757C222.089 209.462 222.438 207.959 222.545 206.683C222.566 206.441 222.572 206.237 222.574 206.067C221.735 205.624 220.642 205.188 219.246 204.732C218.299 204.424 217.314 204.136 216.248 203.824C215.21 203.521 214.086 203.191 212.998 202.831C210.919 202.144 208.4 201.171 206.367 199.539C204.098 197.718 202.4 195.029 202.41 191.434L202.416 191.178C202.521 188.547 204.111 186.59 204.839 185.721C205.319 185.149 205.848 184.585 206.293 184.111C206.77 183.605 207.187 183.163 207.592 182.702C209.161 180.916 209.612 179.845 209.505 178.782L209.476 178.569C209.293 177.478 209.18 175.563 209.076 174.46C208.94 173.03 208.746 171.69 208.403 170.536C208.055 169.366 207.65 168.728 207.323 168.407C207.138 168.226 206.836 167.987 206.104 167.909L205.762 167.886C204.871 167.857 203.623 168.174 201.882 169.063C200.142 169.953 198.449 171.119 196.521 172.403C194.895 173.487 192.579 175.038 190.323 175.681C189.085 176.033 187.303 176.29 185.413 175.594C183.529 174.9 182.276 173.539 181.496 172.105L181.346 171.817C180.506 170.13 179.719 168.086 179.028 166.38C178.286 164.549 177.57 162.878 176.744 161.408C175.178 158.624 173.716 157.415 171.972 157.127L171.62 157.081C169.273 156.86 166.798 156.716 164.757 156.743ZM212.398 191.489C212.392 191.5 212.391 191.511 212.407 191.535C212.407 191.511 212.41 191.486 212.41 191.461L212.398 191.489Z" fill="#053564"/>
<path d="M167.663 160.778C168.715 160.267 170.558 159.815 172.491 160.803C174.153 161.652 174.857 163.075 175.126 163.736C175.431 164.486 175.566 165.221 175.638 165.769L175.699 166.278C175.869 167.81 175.911 169.462 175.79 171.126C178.056 171.602 179.757 173.611 179.757 176.018C179.757 178.78 177.518 181.018 174.757 181.018C173.935 181.018 173.145 181.018 172.385 181.024C171.923 181.606 171.401 182.156 170.809 182.656L170.548 182.869C169.936 183.354 169.314 183.751 168.728 184.084C169.617 184.158 170.516 184.225 171.427 184.287C173.755 184.445 176.253 184.593 178.588 184.877C183.121 185.426 188.46 186.608 192.201 190.775L192.438 191.049C193.6 192.445 194.453 194.248 195.086 196.026C195.797 198.022 196.371 200.396 196.758 203.035C197.484 207.987 197.58 214.102 196.509 220.808L196.279 222.158C195.783 224.891 194.89 227.899 192.48 230.071C190.182 232.141 187.331 232.719 184.75 232.888L184.239 232.917C178.175 233.203 172.429 233.462 167.829 233.32C165.528 233.249 163.331 233.075 161.424 232.701C159.765 232.375 157.727 231.793 156.063 230.51L155.736 230.244C153.128 228.012 149.379 225.119 146.49 222.015C143.6 218.912 140.849 214.891 140.358 209.762L140.317 209.263C139.985 204.251 140.663 199.507 142.032 195.403L142.509 194.014C143.649 190.783 144.964 187.646 146.117 184.958C146.697 183.607 147.21 182.416 147.651 181.381L143.531 179.493L150.117 176.095C150.914 175.248 151.986 174.701 153.139 174.554C154.514 173.929 156.376 173.383 158.149 172.93C158.659 172.8 159.192 172.67 159.741 172.542C159.781 172.475 159.822 172.407 159.863 172.338C160.779 170.747 161.67 168.97 162.638 167.136C163.097 166.267 163.576 165.38 164.043 164.599C164.469 163.888 165.054 162.97 165.753 162.22C166.084 161.866 166.725 161.235 167.663 160.778ZM153.549 193.109C152.989 194.499 152.443 195.914 151.943 197.33L151.519 198.566C150.56 201.442 150.049 204.886 150.295 208.603L150.332 208.99C150.573 210.927 151.671 212.905 153.809 215.202C156.155 217.723 158.962 219.851 162.125 222.552C162.198 222.581 162.543 222.729 163.35 222.887C164.49 223.111 166.074 223.262 168.137 223.325C172.268 223.452 177.593 223.22 183.767 222.928L184.13 222.907C185.188 222.834 185.636 222.689 185.783 222.627C185.875 222.476 186.159 221.917 186.439 220.375L186.634 219.227C187.543 213.53 187.443 208.437 186.864 204.485C186.554 202.375 186.118 200.654 185.664 199.38C185.438 198.744 185.222 198.259 185.038 197.913C184.942 197.732 184.867 197.611 184.819 197.539L184.761 197.456C183.611 196.176 181.528 195.306 177.384 194.803C175.382 194.561 173.227 194.433 170.749 194.264C168.639 194.121 166.347 193.951 164.007 193.647L163.002 193.509C161.354 193.267 159.063 193.191 156.628 193.154C155.653 193.139 154.578 193.13 153.549 193.109Z" fill="#053564"/>
<path d="M170.125 153.267C173.678 153.195 175.901 155.441 176.644 156.304L176.875 156.584L177.14 156.925C178.415 158.632 178.997 160.402 179.319 161.546C179.491 162.157 179.64 162.788 179.737 163.189C179.85 163.652 179.926 163.947 180.002 164.195L180.207 164.908C180.749 166.926 180.936 168.894 180.988 171.28C182.016 171.139 183.049 171.011 183.998 170.922L184.325 170.897C187.645 170.695 190.161 172.162 191.472 173.05C191.708 172.857 191.961 172.662 192.23 172.471L192.951 171.963C194.711 170.738 197.011 169.275 199.928 168.517L200.464 168.389C200.985 168.275 201.457 168.201 201.853 168.15C202.06 168.123 202.271 168.1 202.461 168.081C202.846 167.889 203.291 167.708 203.789 167.576C204.912 167.277 206.41 167.182 208 167.758C209.541 168.316 210.553 169.281 211.145 170.036C212.146 171.309 212.433 172.602 212.488 172.834C212.665 173.575 212.709 174.296 212.724 174.51L212.771 175.364C212.854 177.35 212.742 179.294 212.418 181.008C212.236 181.972 211.944 183.09 211.448 184.176C211.08 184.981 210.158 186.774 208.182 187.999L207.772 188.237C206.878 188.719 206.013 189.078 205.226 189.356C206.142 191.207 206.686 193.031 207.141 194.466L207.301 195C207.783 196.687 207.983 198.249 208.061 199.568C208.107 199.581 208.155 199.592 208.203 199.605L208.765 199.753C209.33 199.894 209.925 200.019 210.666 200.172C211.605 200.366 212.795 200.61 214.097 200.969L214.912 201.204C216.813 201.774 218.697 202.5 220.268 203.327L220.693 203.566C221.205 203.873 221.939 204.39 222.616 205.187C223.664 206.421 224.934 208.863 224.05 211.871C223.333 214.308 221.607 215.534 221.018 215.919C220.27 216.408 219.569 216.677 219.182 216.813C217.805 217.294 216.114 217.505 215.131 217.619C213.916 217.759 212.566 217.87 211.466 217.961C210.554 218.037 209.876 218.095 209.407 218.145L209.007 218.193C207.416 218.41 205.313 218.738 203.282 219.051C203.196 219.415 203.081 219.854 202.924 220.326C202.417 221.846 201.96 223.221 201.507 224.839L201.312 225.549C200.695 227.861 200.369 228.837 200.201 229.967L200.138 230.465C200.105 230.774 200.08 231.015 200.057 231.235C200.455 231.376 200.908 231.551 201.363 231.76L201.628 231.886C203.592 232.857 204.885 234.283 205.727 235.506C206.3 235.663 207.011 235.863 207.546 236.061C207.712 236.123 208.214 236.31 208.769 236.626C208.998 236.758 209.691 237.161 210.389 237.885C210.884 238.4 213.055 240.837 212.148 244.464C211.313 247.807 208.584 249.009 208.117 249.211C207.298 249.567 206.596 249.683 206.338 249.723C205.739 249.816 205.224 249.819 205.015 249.819C204.957 249.819 204.91 249.818 204.892 249.818C204.868 249.817 204.849 249.817 204.837 249.817C204.816 249.816 204.79 249.815 204.78 249.815C204.752 249.814 204.729 249.814 204.703 249.814C204.651 249.813 204.592 249.812 204.533 249.813C204.499 249.813 204.473 249.814 204.453 249.815C204.038 249.883 203.613 249.942 203.177 249.989C202.69 250.153 202.219 250.271 201.782 250.347L201.388 250.407C198.767 250.75 196.189 250.549 194.033 250.132C192.081 249.755 190.032 249.116 188.335 248.195L188.001 248.007C186.94 247.39 185.954 246.743 185.114 246.105C184.835 246.325 184.58 246.497 184.394 246.615L184.187 246.741C183.316 247.26 181.614 248.085 179.487 248.369C179.423 248.39 179.32 248.427 179.175 248.484C178.95 248.571 178.703 248.675 178.379 248.811C178.249 248.866 178.096 248.926 177.936 248.994C177.899 249.378 177.854 249.85 177.792 250.341L177.705 250.96C177.25 253.895 176.428 256.161 175.466 258.146L175.045 258.981C174.91 259.24 174.762 259.482 174.611 259.712C175.825 262.729 174.8 266.284 171.983 268.152C168.863 270.222 164.688 269.462 162.487 266.484L162.281 266.188L161.932 265.642C161.368 264.725 161.045 264.002 160.812 263.382C158.817 262.627 157.266 261.476 156.201 260.584L155.81 260.25C153.077 257.884 151.69 254.6 151.054 253.023L150.825 252.459C149.988 250.458 149.726 248.384 149.586 247.276C149.497 246.573 149.455 246.196 149.393 245.792C149.348 245.504 149.321 245.404 149.326 245.421C148.553 243.059 148.482 239.883 149.402 236.745L149.521 236.367C150.815 232.536 154.043 230.912 156.44 230.405C158.559 229.956 160.682 230.176 161.971 230.344C163.191 230.504 165.034 230.84 165.734 230.95C166.301 231.038 166.63 231.07 166.786 231.084C166.848 231.071 166.914 231.054 166.985 231.041C167.465 230.948 169.302 230.601 171.358 231.433C171.863 231.088 172.504 230.704 173.259 230.374C174.854 229.676 176.567 229.371 178.4 229.39L179.77 229.415C182.395 229.48 184.413 229.648 186.119 229.91C186.156 229.557 186.189 229.248 186.214 229.011L186.275 228.487C186.61 225.881 187.361 223.53 187.786 221.937L188.026 221.062C188.585 219.068 189.137 217.416 189.643 215.899C189.633 215.928 189.663 215.838 189.764 215.333C189.837 214.965 189.985 214.169 190.186 213.41C190.574 211.943 191.563 208.894 194.653 206.894L194.719 206.853C194.298 205.859 194.176 204.992 194.128 204.579C194.059 203.984 194.056 203.447 194.059 203.12C194.061 202.775 194.074 202.41 194.083 202.154C194.093 201.864 194.101 201.617 194.104 201.361C194.117 200.49 194.069 199.729 193.882 199.002L193.794 198.693C193.337 197.25 193.07 196.441 192.798 195.813C192.625 195.414 192.507 195.229 192.438 195.139L192.387 195.077C192.425 195.119 192.354 195.016 191.536 194.494C190.988 194.143 189.836 193.448 188.69 192.522L188.201 192.111C187.781 191.744 186.744 190.952 185.653 190.169C184.311 189.618 183.154 188.92 182.275 188.138L181.961 187.843C181.788 187.671 181.496 187.374 181.203 187.009C181.066 186.838 180.79 186.483 180.516 185.999C180.486 185.948 180.393 185.785 180.273 185.532C179.942 185.581 179.607 185.631 179.269 185.681C178.215 185.837 177.119 185.994 176.148 186.104C175.42 186.186 174.372 186.291 173.355 186.265L172.922 186.246C172.617 186.225 172.067 186.17 171.408 185.976C170.781 185.791 169.641 185.362 168.559 184.332C167.328 183.161 166.563 181.58 166.411 179.882C166.278 178.388 166.654 177.223 166.901 176.616C166.925 176.558 166.951 176.502 166.976 176.447C167.033 170.223 166.978 169.477 166.624 168.324C165.378 168.213 164.145 167.769 163.067 166.967C159.966 164.659 159.324 160.273 161.632 157.172L161.804 156.95C162.669 155.87 163.649 155.228 164.235 154.889C164.936 154.484 165.624 154.202 166.196 154.004C167.319 153.617 168.557 153.364 169.725 153.285L170.125 153.267ZM200.44 169.57C200.428 169.583 200.419 169.592 200.419 169.592C200.381 169.632 200.411 169.6 200.477 169.534C200.462 169.548 200.449 169.561 200.44 169.57Z" fill="#053564"/>
<path d="M204.018 244.82C206.203 241.754 210.442 240.958 213.597 243.061C216.713 245.139 217.626 249.282 215.731 252.463L215.538 252.768L214.667 254.075C214.536 254.272 213.645 255.726 212.247 256.833L211.529 257.402L210.688 257.767C210.662 257.782 210.468 257.898 209.665 258.488C208.977 258.993 207.876 259.81 206.465 260.565L205.842 260.884C204.123 261.723 202.47 261.788 201.245 261.633C200.227 261.504 199.346 261.186 199.261 261.158C199.185 261.132 198.946 261.053 198.709 260.964C198.621 260.931 197.884 260.67 197.122 260.173C196.901 260.029 195.535 259.174 194.65 257.423C194.111 256.359 193.676 254.802 194.006 252.988C194.331 251.207 195.253 249.956 196.019 249.21C196.648 248.597 197.307 248.189 197.849 247.921C197.908 247.833 197.969 247.744 198.035 247.655C198.961 246.404 200.815 244.859 203.555 244.812C203.713 244.809 203.867 244.813 204.018 244.82Z" fill="#053564"/>
<path d="M124.804 162.023C124.251 162.391 130.037 156.438 137.717 158.519L138.084 158.625L138.752 158.842C142.069 159.997 145.032 162.158 147.237 164.449L147.973 165.221C149.74 167.1 151.808 169.454 152.823 171.086C154.866 174.367 153.862 178.684 150.58 180.727C147.298 182.77 142.982 181.767 140.939 178.485C140.952 178.506 140.865 178.371 140.608 178.044C140.373 177.743 140.066 177.37 139.695 176.94C139.139 176.295 138.492 175.578 137.823 174.866L137.15 174.158C136.226 173.197 135.237 172.542 134.501 172.209C134.465 172.236 134.425 172.266 134.384 172.298C134.286 172.375 134.189 172.454 134.067 172.551C133.953 172.643 133.814 172.754 133.672 172.866C133.394 173.084 133.01 173.378 132.57 173.671C131.881 174.131 131.376 174.515 131.027 174.81C130.665 175.117 130.545 175.263 130.567 175.236L130.352 175.5L130.111 175.742C129.882 175.972 129.65 176.182 129.59 176.238C129.5 176.321 129.477 176.342 129.458 176.361C129.446 176.373 129.331 176.486 129.07 176.832L128.847 177.114C126.471 179.955 122.258 180.463 119.268 178.209C116.18 175.882 115.564 171.492 117.891 168.405L118.337 167.832C118.771 167.292 119.169 166.852 119.554 166.466C119.773 166.247 119.963 166.07 120.086 165.958C121.329 164.556 122.981 163.238 124.804 162.023Z" fill="#053564"/>
<path d="M174.547 164.819C174.547 163.217 174.542 162.122 174.495 161.529C174.482 161.362 174.467 161.258 174.435 161.076C174.408 160.927 174.295 160.338 174.227 159.715L174.215 159.608L174.206 159.5C174.191 159.31 174.177 159.131 174.163 158.962C169.964 158.964 166.993 158.97 164.851 159.015C164.964 159.297 165.106 159.657 165.225 160.015L151.937 164.422C151.953 164.47 151.935 164.414 151.797 164.078C151.691 163.822 151.507 163.379 151.331 162.937C151.011 162.132 150.609 161.064 150.272 159.841L150.131 159.308C149.166 155.459 150.269 152.13 151.272 150.285L151.472 149.936C152.504 148.217 154.03 146.929 155.966 146.156C157.582 145.51 159.317 145.298 160.754 145.185C163.703 144.952 168.449 144.963 175.779 144.961L176.43 144.966C177.94 144.991 179.396 145.114 180.708 145.486C181.548 145.724 182.481 146.103 183.389 146.738C184.094 147.23 184.593 147.747 184.885 148.083L185.109 148.352L185.384 148.706C186.71 150.486 187.308 152.369 187.627 153.918C187.929 155.387 188.052 156.978 188.15 158.235C188.151 158.243 188.152 158.253 188.154 158.264C188.174 158.38 188.179 158.4 188.223 158.651C188.299 159.081 188.392 159.66 188.452 160.43C188.553 161.708 188.547 163.474 188.547 164.819C188.547 168.684 185.413 171.819 181.547 171.819C177.681 171.818 174.547 168.684 174.547 164.819ZM165.225 160.015C166.442 163.684 164.454 167.646 160.784 168.863C157.115 170.08 153.154 168.091 151.937 164.422L165.225 160.015Z" fill="#053564"/>
<path d="M129.569 174.31C131.375 172.933 134.228 171.643 137.621 172.293L137.994 172.372L138.743 172.546C139.591 172.753 140.834 173.106 142.077 173.727L142.416 173.903L142.83 174.117C143.243 174.319 143.646 174.49 144 174.62C144.233 174.706 144.418 174.765 144.543 174.801C144.621 174.823 144.656 174.831 144.651 174.83L144.913 174.88C148.531 175.67 150.932 179.169 150.319 182.864C149.933 185.195 148.434 187.063 146.457 188.02C146.462 188.128 146.465 188.23 146.467 188.325C146.485 189.201 146.413 190.152 146.225 191.073C146.135 191.513 146 192.038 145.789 192.604C146.145 193.56 146.403 194.424 146.592 195.175L146.674 195.534C147.448 199.215 145.752 202.108 144.992 203.284C144.539 203.984 144.042 204.628 143.75 205.009C143.569 205.245 143.443 205.412 143.35 205.537L143.149 205.821C143.142 205.833 143.132 205.844 143.124 205.856C143.613 205.946 144.161 206.095 144.736 206.345L145.001 206.466L145.244 206.588C149.941 209.02 149.444 213.924 148.942 215.824L148.842 216.166C148.542 217.084 148.184 217.909 147.798 218.655C148.743 218.739 149.641 218.915 150.471 219.164L150.834 219.28L151.133 219.383C152.683 219.935 155.69 221.313 157.281 224.92L157.44 225.302L157.626 225.784C158.547 228.24 159.329 231.321 159.579 234.07C159.704 235.443 159.766 237.403 159.238 239.318C158.966 240.305 158.41 241.756 157.187 243.069C155.899 244.451 154.14 245.378 152.147 245.589L151.744 245.621C149.687 245.737 147.782 245.428 146.807 245.286C146.221 245.202 145.914 245.162 145.678 245.145C145.641 245.142 145.613 245.141 145.592 245.14C144.451 245.306 143.205 245.408 142.453 245.483C141.517 245.575 140.838 245.666 140.233 245.808C140.264 245.801 140.348 245.757 139.732 246.082C138.883 248.992 136.198 251.118 133.014 251.118C129.388 251.118 126.406 248.363 126.049 244.831C125.099 243.486 124.686 242.022 124.547 240.781L124.517 240.456C124.394 238.894 124.347 237.381 124.398 236.046C124.438 235.017 124.551 233.134 125.258 231.445L125.478 230.955C126.008 229.852 126.652 229.006 127.141 228.427C127.649 227.825 128.268 227.205 128.475 226.99C128.512 226.951 128.544 226.913 128.575 226.88C128.792 225.975 128.943 225.16 129.171 224.061C127.81 224.166 125.931 224.293 124.002 224.353C122.036 224.414 119.581 224.426 117.516 224.155L117.108 224.096C114.734 223.729 112.632 222.911 111.085 222.189C109.599 222.034 108.439 221.458 107.679 220.946C106.813 220.362 106.238 219.716 105.912 219.307C105.566 218.873 105.323 218.478 105.174 218.216C105.161 218.194 105.151 218.171 105.139 218.15C104.975 217.873 104.762 217.481 104.581 217.015C104.438 216.646 104.128 215.775 104.096 214.62C104.066 213.539 104.292 211.77 105.539 210.148C105.542 210.113 105.543 210.078 105.547 210.042C105.913 206.52 108.542 204.952 109.164 204.613C110.024 204.144 110.78 203.972 111.033 203.916C111.636 203.785 112.13 203.762 112.259 203.756C112.322 203.753 112.384 203.755 112.443 203.753C112.938 203.328 113.504 202.927 114.148 202.576L114.673 202.303C115.895 201.695 117.106 201.279 118.231 200.969L118.763 200.81C119.278 200.644 119.788 200.448 120.691 200.133C121.713 199.777 123.226 199.279 125 199.094L125.971 198.999C128.007 198.812 128.553 198.836 129.708 198.434L130.456 198.177C130.687 198.098 130.887 198.029 131.072 197.961C131.381 197.849 131.596 197.758 131.752 197.687C131.981 197.36 132.208 197.061 132.395 196.815C132.014 195.96 131.431 194.908 130.523 193.718L130.165 193.263C129.547 192.5 128.916 191.666 128.391 190.981C127.831 190.25 127.341 189.621 126.863 189.056C126.719 188.885 126.582 188.73 126.454 188.587C126.337 188.5 126.22 188.416 126.108 188.33L124.784 187.291C124.606 187.151 124.496 187.07 124.273 186.899C124.265 186.892 123.99 186.684 123.736 186.459C123.677 186.406 123.441 186.197 123.174 185.902C123.064 185.78 122.73 185.406 122.397 184.863C122.234 184.595 121.923 184.051 121.688 183.302C121.477 182.632 121.091 181.059 121.671 179.16C122.362 176.898 124.015 175.448 125.628 174.762C126.968 174.192 128.135 174.19 128.626 174.208C128.975 174.221 129.294 174.262 129.569 174.31ZM105.059 218.005C105.059 218.006 105.062 218.011 105.066 218.019C105.046 217.981 105.027 217.946 105.01 217.913C105.023 217.939 105.04 217.97 105.059 218.005Z" fill="#053564"/>
<path d="M143.656 234.232C147.051 232.753 151.047 234.181 152.715 237.534C154.31 240.74 153.216 244.579 150.296 246.497C150.243 246.553 150.178 246.624 150.102 246.711C149.801 247.055 149.442 247.517 149.083 248.028C149.116 248.386 149.12 248.704 149.112 248.965L149.088 249.397C148.998 250.474 148.675 251.268 148.576 251.507C148.432 251.857 148.287 252.128 148.196 252.29C148.013 252.617 147.834 252.874 147.722 253.031C147.483 253.363 147.232 253.661 146.999 253.914C146.611 254.335 146.033 254.891 145.277 255.408L144.943 255.627C144.753 255.744 144.441 255.965 143.836 256.401C143.339 256.76 142.61 257.288 141.908 257.737C141.628 257.916 140.92 258.377 139.983 258.779C139.867 258.841 139.75 258.904 139.63 258.964C139.4 259.08 139.181 259.179 139.093 259.22C138.98 259.273 138.945 259.29 138.915 259.305C138.897 259.314 138.816 259.352 138.616 259.485C135.395 261.622 131.051 260.743 128.914 257.521C126.922 254.517 127.552 250.539 130.257 248.283C130.54 247.705 130.865 247.174 131.201 246.699C132.058 245.489 133.195 244.334 134.568 243.321L134.967 243.014C135.872 242.292 136.59 241.518 137.16 240.663C137.872 239.596 138.703 238.48 139.552 237.506C140.167 236.802 141.533 235.278 143.329 234.384L143.656 234.232Z" fill="#053564"/>
<path d="M157.939 184.416C160.671 183.813 163.381 184.897 164.987 186.972C165.891 186.688 166.911 186.496 168.037 186.489L168.407 186.493L170.088 186.513C170.834 186.524 171.659 186.543 172.248 186.586C173.679 186.69 175.801 186.982 177.911 188.176L178.333 188.427L179.153 188.954C181.264 190.351 184.641 192.905 187.002 196.565L187.369 197.146C189.151 200.037 190.201 202.718 190.841 204.803L190.989 205.303C191.332 206.509 191.654 207.987 191.809 209.556C191.966 211.148 192.005 213.337 191.358 215.56L191.219 216.006C190.548 218.018 189.129 220.421 186.416 221.977L186.149 222.125C185.064 222.707 181.883 224.76 178.146 225.366L177.783 225.42C175.567 225.719 172.948 225.874 170.602 225.883C168.648 225.889 166.087 225.806 164.082 225.32L163.688 225.218C161.822 224.694 159.414 223.928 157.04 222.554L156.565 222.27C152.94 220.039 150.442 216.706 149.337 213.392C149.185 212.936 148.977 212.516 148.43 211.275C148.047 210.407 147.496 209.12 147.116 207.643L146.964 207C146.73 205.895 146.649 205.869 146.201 204.002C145.888 202.697 145.517 200.856 145.589 198.799L145.61 198.311C145.669 197.103 145.825 195.416 146.359 193.726C146.993 191.721 148.406 188.98 151.519 187.354L152.12 187.032C152.611 186.76 152.879 186.586 153.919 186.025C154.732 185.587 156.246 184.79 157.939 184.416Z" fill="#053564"/>
<circle cx="167.5" cy="205.5" r="16.5" fill="#FFE987"/>
</svg>
